<svg width="1535" height="750" viewBox="0 0 1535 750" fill="none" xmlns="http://www.w3.org/2000/svg">
<rect width="1533.66" height="750" rx="60" transform="matrix(-1 0 0 1 1533.66 0)" fill="url(#paint0_linear_184_1781)"/>
<mask id="mask0_184_1781" style="mask-type:alpha" maskUnits="userSpaceOnUse" x="0" y="0" width="1530" height="748">
<rect width="1529.05" height="747.748" rx="60" transform="matrix(-1 0 0 1 1529.05 0)" fill="#0F90E5"/>
</mask>
<g mask="url(#mask0_184_1781)">
<rect opacity="0.34" width="1655" height="2272.86" rx="60" transform="matrix(0.76306 -0.646328 -0.962377 -0.271718 1877.29 2008.85)" fill="url(#paint1_linear_184_1781)"/>
<rect opacity="0.34" width="1834.97" height="962.345" rx="60" transform="matrix(0.995437 -0.0954206 -0.372056 -0.92821 -1107.43 1240.5)" fill="url(#paint2_linear_184_1781)"/>
</g>
<mask id="mask1_184_1781" style="mask-type:alpha" maskUnits="userSpaceOnUse" x="5" y="0" width="1530" height="748">
<rect width="1529.05" height="747.748" rx="60" transform="matrix(-1 0 0 1 1534.45 0)" fill="#0F90E5"/>
</mask>
<g mask="url(#mask1_184_1781)">
<rect opacity="0.62" width="1203.56" height="1203.56" rx="60" transform="matrix(-0.898335 0.439311 0.898335 0.439311 1040.68 -740.355)" fill="url(#paint3_linear_184_1781)"/>
</g>
<rect opacity="0.3" x="-2" y="2" width="20.2213" height="20.2199" rx="5" transform="matrix(-1 0 0 1 800.054 369.844)" stroke="#D9D9D9" stroke-width="4"/>
<rect opacity="0.3" x="-2.5" y="2.5" width="19.2213" height="19.2199" rx="9.60994" transform="matrix(-1 0 0 1 148.199 63.4954)" stroke="#D9D9D9" stroke-width="5"/>
<rect opacity="0.3" x="905.413" y="697.602" width="19.2213" height="19.2199" rx="9.60994" stroke="#D9D9D9" stroke-width="5"/>
<path opacity="0.3" d="M1370 75C1370 70.0294 1365.97 66 1361 66C1356.03 66 1352 70.0294 1352 75C1352 79.9706 1356.03 84 1361 84C1365.97 84 1370 79.9706 1370 75Z" stroke="#D9D9D9" stroke-width="4"/>
<path opacity="0.3" d="M1439 621C1439 620.448 1438.55 620 1438 620H1422C1421.45 620 1421 620.448 1421 621V637C1421 637.552 1421.45 638 1422 638H1438C1438.55 638 1439 637.552 1439 637V621Z" stroke="#D9D9D9" stroke-width="4"/>
<path opacity="0.2" d="M1459.87 273.5C1459.48 272.833 1458.52 272.833 1458.14 273.5L1452.94 282.501L1447.74 291.502C1447.36 292.169 1447.84 293.002 1448.61 293.002H1459H1469.4C1470.17 293.002 1470.65 292.169 1470.26 291.502L1465.06 282.501L1459.87 273.5Z" stroke="#D9D9D9" stroke-width="4"/>
<path opacity="0.4" d="M1373.25 474.5H1397.75M1385.5 486.75V462.25" stroke="#D9D9D9" stroke-width="4" stroke-linecap="round" stroke-linejoin="round"/>
<path opacity="0.4" d="M226.5 711H247.5M237 721.5V700.5" stroke="#D9D9D9" stroke-width="4" stroke-linecap="round" stroke-linejoin="round"/>
<defs>
<linearGradient id="paint0_linear_184_1781" x1="1984.22" y1="324.153" x2="-370.73" y2="350.727" gradientUnits="userSpaceOnUse">
<stop stop-color="#009AFF"/>
<stop offset="1" stop-color="#004573"/>
</linearGradient>
<linearGradient id="paint1_linear_184_1781" x1="3542.43" y1="5674.71" x2="305.374" y2="2422.78" gradientUnits="userSpaceOnUse">
<stop stop-color="white"/>
<stop offset="1" stop-color="white" stop-opacity="0"/>
</linearGradient>
<linearGradient id="paint2_linear_184_1781" x1="1917.09" y1="2435.64" x2="1799.7" y2="700.462" gradientUnits="userSpaceOnUse">
<stop stop-color="white"/>
<stop offset="1" stop-color="white" stop-opacity="0"/>
</linearGradient>
<linearGradient id="paint3_linear_184_1781" x1="2271.4" y1="3016.99" x2="956.067" y2="822.356" gradientUnits="userSpaceOnUse">
<stop stop-color="white"/>
<stop offset="1" stop-color="white" stop-opacity="0"/>
</linearGradient>
</defs>
</svg>
